<?xml version="1.0" encoding="UTF-8"?>
<!--Generator: Apple Native CoreSVG 232.5-->
<!DOCTYPE svg
PUBLIC "-//W3C//DTD SVG 1.1//EN"
       "http://www.w3.org/Graphics/SVG/1.1/DTD/svg11.dtd">
<svg version="1.1" xmlns="http://www.w3.org/2000/svg" xmlns:xlink="http://www.w3.org/1999/xlink" width="3300" height="2200">
 <!--glyph: "", point size: 100.0, font version: "19.2d2e1", template writer version: "128"-->
 <style>.monochrome-0 {-sfsymbols-motion-group:0}

.multicolor-0:tintColor {-sfsymbols-motion-group:0}

.hierarchical-0:primary {-sfsymbols-motion-group:0}

.SFSymbolsPreviewWireframe {fill:none;opacity:1.0;stroke:black;stroke-width:0.5}
</style>
 <g id="Notes">
  <rect height="2200" id="artboard" style="fill:white;opacity:1" width="3300" x="0" y="0"/>
  <line style="fill:none;stroke:black;opacity:1;stroke-width:0.5;" x1="263" x2="3036" y1="292" y2="292"/>
  <text style="stroke:none;fill:black;font-family:sans-serif;font-size:13;font-weight:bold;" transform="matrix(1 0 0 1 263 322)">Weight/Scale Variations</text>
  <text style="stroke:none;fill:black;font-family:sans-serif;font-size:13;text-anchor:middle;" transform="matrix(1 0 0 1 559.711 322)">Ultralight</text>
  <text style="stroke:none;fill:black;font-family:sans-serif;font-size:13;text-anchor:middle;" transform="matrix(1 0 0 1 856.422 322)">Thin</text>
  <text style="stroke:none;fill:black;font-family:sans-serif;font-size:13;text-anchor:middle;" transform="matrix(1 0 0 1 1153.13 322)">Light</text>
  <text style="stroke:none;fill:black;font-family:sans-serif;font-size:13;text-anchor:middle;" transform="matrix(1 0 0 1 1449.84 322)">Regular</text>
  <text style="stroke:none;fill:black;font-family:sans-serif;font-size:13;text-anchor:middle;" transform="matrix(1 0 0 1 1746.56 322)">Medium</text>
  <text style="stroke:none;fill:black;font-family:sans-serif;font-size:13;text-anchor:middle;" transform="matrix(1 0 0 1 2043.27 322)">Semibold</text>
  <text style="stroke:none;fill:black;font-family:sans-serif;font-size:13;text-anchor:middle;" transform="matrix(1 0 0 1 2339.98 322)">Bold</text>
  <text style="stroke:none;fill:black;font-family:sans-serif;font-size:13;text-anchor:middle;" transform="matrix(1 0 0 1 2636.69 322)">Heavy</text>
  <text style="stroke:none;fill:black;font-family:sans-serif;font-size:13;text-anchor:middle;" transform="matrix(1 0 0 1 2933.4 322)">Black</text>
  <line style="fill:none;stroke:black;opacity:1;stroke-width:0.5;" x1="263" x2="3036" y1="1903" y2="1903"/>
  <g transform="matrix(0.2 0 0 0.2 263 1933)">
   <path d="m46.2402 4.15039c21.5332 0 39.4531-17.8711 39.4531-39.4043s-17.9688-39.4043-39.502-39.4043c-21.4844 0-39.3555 17.8711-39.3555 39.4043s17.9199 39.4043 39.4043 39.4043Zm0-7.42188c-17.7246 0-31.8848-14.209-31.8848-31.9824s14.1113-31.9824 31.8359-31.9824c17.7734 0 32.0312 14.209 32.0312 31.9824s-14.209 31.9824-31.9824 31.9824Zm-17.9688-31.9824c0 2.14844 1.51367 3.61328 3.75977 3.61328h10.498v10.5957c0 2.19727 1.46484 3.71094 3.61328 3.71094 2.24609 0 3.71094-1.51367 3.71094-3.71094v-10.5957h10.5957c2.19727 0 3.71094-1.46484 3.71094-3.61328 0-2.19727-1.51367-3.71094-3.71094-3.71094h-10.5957v-10.5469c0-2.24609-1.46484-3.75977-3.71094-3.75977-2.14844 0-3.61328 1.51367-3.61328 3.75977v10.5469h-10.498c-2.24609 0-3.75977 1.51367-3.75977 3.71094Z"/>
  </g>
  <g transform="matrix(0.2 0 0 0.2 281.506 1933)">
   <path d="m58.5449 14.5508c27.2461 0 49.8047-22.6074 49.8047-49.8047 0-27.2461-22.6074-49.8047-49.8535-49.8047-27.1973 0-49.7559 22.5586-49.7559 49.8047 0 27.1973 22.6074 49.8047 49.8047 49.8047Zm0-8.30078c-23.0469 0-41.4551-18.457-41.4551-41.5039s18.3594-41.5039 41.4062-41.5039 41.5527 18.457 41.5527 41.5039-18.457 41.5039-41.5039 41.5039Zm-22.6562-41.5039c0 2.39258 1.66016 4.00391 4.15039 4.00391h14.3555v14.4043c0 2.44141 1.66016 4.15039 4.05273 4.15039 2.44141 0 4.15039-1.66016 4.15039-4.15039v-14.4043h14.4043c2.44141 0 4.15039-1.61133 4.15039-4.00391 0-2.44141-1.70898-4.15039-4.15039-4.15039h-14.4043v-14.3555c0-2.49023-1.70898-4.19922-4.15039-4.19922-2.39258 0-4.05273 1.70898-4.05273 4.19922v14.3555h-14.3555c-2.49023 0-4.15039 1.70898-4.15039 4.15039Z"/>
  </g>
  <g transform="matrix(0.2 0 0 0.2 304.924 1933)">
   <path d="m74.8535 28.3203c34.8145 0 63.623-28.8086 63.623-63.5742 0-34.8145-28.8574-63.623-63.6719-63.623-34.7656 0-63.5254 28.8086-63.5254 63.623 0 34.7656 28.8086 63.5742 63.5742 63.5742Zm0-9.08203c-30.1758 0-54.4434-24.3164-54.4434-54.4922 0-30.2246 24.2188-54.4922 54.3945-54.4922 30.2246 0 54.541 24.2676 54.541 54.4922 0 30.1758-24.2676 54.4922-54.4922 54.4922Zm-28.8574-54.4922c0 2.58789 1.85547 4.39453 4.58984 4.39453h19.7266v19.7754c0 2.68555 1.85547 4.58984 4.44336 4.58984 2.68555 0 4.54102-1.85547 4.54102-4.58984v-19.7754h19.7754c2.68555 0 4.58984-1.80664 4.58984-4.39453 0-2.73438-1.85547-4.58984-4.58984-4.58984h-19.7754v-19.7266c0-2.73438-1.85547-4.63867-4.54102-4.63867-2.58789 0-4.44336 1.9043-4.44336 4.63867v19.7266h-19.7266c-2.73438 0-4.58984 1.85547-4.58984 4.58984Z"/>
  </g>
  <text style="stroke:none;fill:black;font-family:sans-serif;font-size:13;font-weight:bold;" transform="matrix(1 0 0 1 263 1953)">Design Variations</text>
  <text style="stroke:none;fill:black;font-family:sans-serif;font-size:13;" transform="matrix(1 0 0 1 263 1971)">Symbols are supported in up to nine weights and three scales.</text>
  <text style="stroke:none;fill:black;font-family:sans-serif;font-size:13;" transform="matrix(1 0 0 1 263 1989)">For optimal layout with text and other symbols, vertically align</text>
  <text style="stroke:none;fill:black;font-family:sans-serif;font-size:13;" transform="matrix(1 0 0 1 263 2007)">symbols with the adjacent text.</text>
  <line style="fill:none;stroke:#00AEEF;stroke-width:0.5;opacity:1.0;" x1="776" x2="776" y1="1919" y2="1933"/>
  <g transform="matrix(0.2 0 0 0.2 776 1933)">
   <path d="m16.5527 0.78125c2.58789 0 3.85742-0.976562 4.78516-3.71094l6.29883-17.2363h28.8086l6.29883 17.2363c0.927734 2.73438 2.19727 3.71094 4.73633 3.71094 2.58789 0 4.24805-1.5625 4.24805-4.00391 0-0.830078-0.146484-1.61133-0.537109-2.63672l-22.9004-60.9863c-1.12305-2.97852-3.125-4.49219-6.25-4.49219-3.02734 0-5.07812 1.46484-6.15234 4.44336l-22.9004 61.084c-0.390625 1.02539-0.537109 1.80664-0.537109 2.63672 0 2.44141 1.5625 3.95508 4.10156 3.95508Zm13.4766-28.3691 11.8652-32.8613h0.244141l11.8652 32.8613Z"/>
  </g>
  <line style="fill:none;stroke:#00AEEF;stroke-width:0.5;opacity:1.0;" x1="792.836" x2="792.836" y1="1919" y2="1933"/>
  <text style="stroke:none;fill:black;font-family:sans-serif;font-size:13;font-weight:bold;" transform="matrix(1 0 0 1 776 1953)">Margins</text>
  <text style="stroke:none;fill:black;font-family:sans-serif;font-size:13;" transform="matrix(1 0 0 1 776 1971)">Leading and trailing margins on the left and right side of each symbol</text>
  <text style="stroke:none;fill:black;font-family:sans-serif;font-size:13;" transform="matrix(1 0 0 1 776 1989)">can be adjusted by modifying the x-location of the margin guidelines.</text>
  <text style="stroke:none;fill:black;font-family:sans-serif;font-size:13;" transform="matrix(1 0 0 1 776 2007)">Modifications are automatically applied proportionally to all</text>
  <text style="stroke:none;fill:black;font-family:sans-serif;font-size:13;" transform="matrix(1 0 0 1 776 2025)">scales and weights.</text>
  <g transform="matrix(0.2 0 0 0.2 1289 1933)">
   <path d="m14.209 9.32617 8.49609 8.54492c4.29688 4.3457 9.22852 4.05273 13.8672-1.07422l53.4668-58.9355-4.83398-4.88281-53.0762 58.3984c-1.75781 2.00195-3.41797 2.49023-5.76172 0.146484l-5.85938-5.81055c-2.34375-2.29492-1.80664-4.00391 0.195312-5.81055l57.373-54.0039-4.88281-4.83398-57.959 54.4434c-4.93164 4.58984-5.32227 9.47266-1.02539 13.8184Zm32.0801-90.9668c-2.09961 2.05078-2.24609 4.93164-1.07422 6.88477 1.17188 1.80664 3.4668 2.97852 6.68945 2.14844 7.32422-1.70898 14.9414-2.00195 22.0703 2.68555l-2.92969 7.27539c-1.70898 4.15039-0.830078 7.08008 1.85547 9.81445l11.4746 11.5723c2.44141 2.44141 4.49219 2.53906 7.32422 2.05078l5.32227-0.976562 3.32031 3.36914-0.195312 2.7832c-0.195312 2.49023 0.439453 4.39453 2.88086 6.78711l3.80859 3.71094c2.39258 2.39258 5.46875 2.53906 7.8125 0.195312l14.5508-14.5996c2.34375-2.34375 2.24609-5.32227-0.146484-7.71484l-3.85742-3.80859c-2.39258-2.39258-4.24805-3.17383-6.64062-2.97852l-2.88086 0.244141-3.22266-3.17383 1.2207-5.61523c0.634766-2.83203-0.146484-5.0293-3.07617-7.95898l-10.9863-10.9375c-16.6992-16.6016-38.8672-16.2109-53.3203-1.75781Zm7.4707 1.85547c12.1582-8.88672 28.6133-7.37305 39.7461 3.75977l12.1582 12.0605c1.17188 1.17188 1.36719 2.09961 1.02539 3.80859l-1.61133 7.42188 7.51953 7.42188 4.93164-0.292969c1.26953-0.0488281 1.66016 0.0488281 2.63672 1.02539l2.88086 2.88086-12.207 12.207-2.88086-2.88086c-0.976562-0.976562-1.12305-1.36719-1.07422-2.68555l0.341797-4.88281-7.4707-7.42188-7.61719 1.26953c-1.61133 0.341797-2.34375 0.195312-3.56445-0.976562l-10.0098-10.0098c-1.26953-1.17188-1.41602-2.00195-0.634766-3.85742l4.39453-10.4492c-7.8125-7.27539-17.9688-10.4004-28.125-7.42188-0.78125 0.195312-1.07422-0.439453-0.439453-0.976562Z"/>
  </g>
  <text style="stroke:none;fill:black;font-family:sans-serif;font-size:13;font-weight:bold;" transform="matrix(1 0 0 1 1289 1953)">Exporting</text>
  <text style="stroke:none;fill:black;font-family:sans-serif;font-size:13;" transform="matrix(1 0 0 1 1289 1971)">Symbols should be outlined when exporting to ensure the</text>
  <text style="stroke:none;fill:black;font-family:sans-serif;font-size:13;" transform="matrix(1 0 0 1 1289 1989)">design is preserved when submitting to Xcode.</text>
  <text id="template-version" style="stroke:none;fill:black;font-family:sans-serif;font-size:13;text-anchor:end;" transform="matrix(1 0 0 1 3036 1933)">Template v.5.0</text>
  <text style="stroke:none;fill:black;font-family:sans-serif;font-size:13;text-anchor:end;" transform="matrix(1 0 0 1 3036 1951)">Requires Xcode 15 or greater</text>
  <text id="descriptive-name" style="stroke:none;fill:black;font-family:sans-serif;font-size:13;text-anchor:end;" transform="matrix(1 0 0 1 3036 1969)">Generated from R_R</text>
  <text style="stroke:none;fill:black;font-family:sans-serif;font-size:13;text-anchor:end;" transform="matrix(1 0 0 1 3036 1987)">Typeset at 100.0 points</text>
  <text style="stroke:none;fill:black;font-family:sans-serif;font-size:13;" transform="matrix(1 0 0 1 263 726)">Small</text>
  <text style="stroke:none;fill:black;font-family:sans-serif;font-size:13;" transform="matrix(1 0 0 1 263 1156)">Medium</text>
  <text style="stroke:none;fill:black;font-family:sans-serif;font-size:13;" transform="matrix(1 0 0 1 263 1586)">Large</text>
 </g>
 <g id="Guides">
  <g id="H-reference" style="fill:#27AAE1;stroke:none;" transform="matrix(1 0 0 1 339 696)">
   <path d="M0.993654 0L3.63775 0L29.3281-67.1323L30.0303-67.1323L30.0303-70.459L28.1226-70.459ZM11.6885-24.4799L46.9815-24.4799L46.2315-26.7285L12.4385-26.7285ZM55.1196 0L57.7637 0L30.6382-70.459L29.4326-70.459L29.4326-67.1323Z"/>
  </g>
  <line id="Baseline-S" style="fill:none;stroke:#27AAE1;opacity:1;stroke-width:0.5;" x1="263" x2="3036" y1="696" y2="696"/>
  <line id="Capline-S" style="fill:none;stroke:#27AAE1;opacity:1;stroke-width:0.5;" x1="263" x2="3036" y1="625.541" y2="625.541"/>
  <g id="H-reference" style="fill:#27AAE1;stroke:none;" transform="matrix(1 0 0 1 339 1126)">
   <path d="M0.993654 0L3.63775 0L29.3281-67.1323L30.0303-67.1323L30.0303-70.459L28.1226-70.459ZM11.6885-24.4799L46.9815-24.4799L46.2315-26.7285L12.4385-26.7285ZM55.1196 0L57.7637 0L30.6382-70.459L29.4326-70.459L29.4326-67.1323Z"/>
  </g>
  <line id="Baseline-M" style="fill:none;stroke:#27AAE1;opacity:1;stroke-width:0.5;" x1="263" x2="3036" y1="1126" y2="1126"/>
  <line id="Capline-M" style="fill:none;stroke:#27AAE1;opacity:1;stroke-width:0.5;" x1="263" x2="3036" y1="1055.54" y2="1055.54"/>
  <g id="H-reference" style="fill:#27AAE1;stroke:none;" transform="matrix(1 0 0 1 339 1556)">
   <path d="M0.993654 0L3.63775 0L29.3281-67.1323L30.0303-67.1323L30.0303-70.459L28.1226-70.459ZM11.6885-24.4799L46.9815-24.4799L46.2315-26.7285L12.4385-26.7285ZM55.1196 0L57.7637 0L30.6382-70.459L29.4326-70.459L29.4326-67.1323Z"/>
  </g>
  <line id="Baseline-L" style="fill:none;stroke:#27AAE1;opacity:1;stroke-width:0.5;" x1="263" x2="3036" y1="1556" y2="1556"/>
  <line id="Capline-L" style="fill:none;stroke:#27AAE1;opacity:1;stroke-width:0.5;" x1="263" x2="3036" y1="1485.54" y2="1485.54"/>
  <line id="left-margin-Ultralight-S" style="fill:none;stroke:#00AEEF;stroke-width:0.5;opacity:1.0;" x1="515.649" x2="515.649" y1="600.785" y2="720.121"/>
  <line id="right-margin-Ultralight-S" style="fill:none;stroke:#00AEEF;stroke-width:0.5;opacity:1.0;" x1="603.773" x2="603.773" y1="600.785" y2="720.121"/>
  <line id="left-margin-Regular-S" style="fill:none;stroke:#00AEEF;stroke-width:0.5;opacity:1.0;" x1="1403.58" x2="1403.58" y1="600.785" y2="720.121"/>
  <line id="right-margin-Regular-S" style="fill:none;stroke:#00AEEF;stroke-width:0.5;opacity:1.0;" x1="1496.11" x2="1496.11" y1="600.785" y2="720.121"/>
  <line id="left-margin-Black-S" style="fill:none;stroke:#00AEEF;stroke-width:0.5;opacity:1.0;" x1="2884.57" x2="2884.57" y1="600.785" y2="720.121"/>
  <line id="right-margin-Black-S" style="fill:none;stroke:#00AEEF;stroke-width:0.5;opacity:1.0;" x1="2982.23" x2="2982.23" y1="600.785" y2="720.121"/>
 </g>
 <g id="Symbols">
  <g id="Black-S" transform="matrix(1 0 0 1 2884.57 696)">
   <path class="monochrome-0 multicolor-0:tintColor hierarchical-0:primary SFSymbolsPreviewWireframe" d="M40.2983-39.9567C40.2983-38.2189 39.7489-36.7622 38.65-35.5867C37.5767-34.4111 36.2222-33.5167 34.5867-32.9033C35.8645-32.3667 36.7078-31.715 37.1167-30.9483L39.915-25.62C41.1161-25.2111 41.9339-24.7383 42.3683-24.2017L41.985-21.25L35.5067-21.25L31.0983-30.6417C30.6895-31.5872 30.2167-32.06 29.68-32.06L27.1883-32.06L27.1883-25.9267C29.0539-25.5178 30.2167-25.0194 30.6767-24.4317L30.2933-21.25L19.9433-21.25L19.56-24.4317C19.8922-24.8661 20.595-25.2878 21.6683-25.6967L21.6683-43.215C20.6206-43.5983 19.9178-44.0328 19.56-44.5183L19.9433-47.7L29.7183-47.7C33.2961-47.6489 35.9539-47.0739 37.6917-45.975C39.4295-44.8761 40.2983-42.87 40.2983-39.9567ZM29.45-43.5217L27.1883-43.5217L27.1883-36.2383L29.3733-36.2383C31.1111-36.2383 32.4017-36.4939 33.245-37.005C34.1139-37.5417 34.5483-38.4872 34.5483-39.8417C34.5483-41.1961 34.1139-42.1417 33.245-42.6783C32.3761-43.2406 31.1111-43.5217 29.45-43.5217ZM47.2723-23.9333C45.2534-23.9333 44.244-24.8789 44.244-26.77C44.244-28.6867 45.2534-29.645 47.2723-29.645C49.3168-29.645 50.339-28.6867 50.339-26.77C50.339-24.8789 49.3168-23.9333 47.2723-23.9333ZM47.2723-32.5967C45.2534-32.5967 44.244-33.5422 44.244-35.4333C44.244-37.35 45.2534-38.3083 47.2723-38.3083C49.3168-38.3083 50.339-37.35 50.339-35.4333C50.339-33.5422 49.3168-32.5967 47.2723-32.5967ZM74.1395-39.9567C74.1395-38.2189 73.59-36.7622 72.4912-35.5867C71.4178-34.4111 70.0634-33.5167 68.4278-32.9033C69.7056-32.3667 70.5489-31.715 70.9578-30.9483L73.7562-25.62C74.9573-25.2111 75.775-24.7383 76.2095-24.2017L75.8262-21.25L69.3478-21.25L64.9395-30.6417C64.5306-31.5872 64.0578-32.06 63.5212-32.06L61.0295-32.06L61.0295-25.9267C62.895-25.5178 64.0578-25.0194 64.5178-24.4317L64.1345-21.25L53.7845-21.25L53.4012-24.4317C53.7334-24.8661 54.4362-25.2878 55.5095-25.6967L55.5095-43.215C54.4617-43.5983 53.7589-44.0328 53.4012-44.5183L53.7845-47.7L63.5595-47.7C67.1373-47.6489 69.795-47.0739 71.5328-45.975C73.2706-44.8761 74.1395-42.87 74.1395-39.9567ZM63.2912-43.5217L61.0295-43.5217L61.0295-36.2383L63.2145-36.2383C64.9523-36.2383 66.2428-36.4939 67.0862-37.005C67.955-37.5417 68.3895-38.4872 68.3895-39.8417C68.3895-41.1961 67.955-42.1417 67.0862-42.6783C66.2173-43.2406 64.9523-43.5217 63.2912-43.5217Z"/>
  </g>
  <g id="Regular-S" transform="matrix(1 0 0 1 1403.58 696)">
   <path class="monochrome-0 multicolor-0:tintColor hierarchical-0:primary SFSymbolsPreviewWireframe" d="M37.2983-39.9567C37.2983-38.2189 36.7489-36.7622 35.65-35.5867C34.5767-34.4111 33.2222-33.5167 31.5867-32.9033C32.8645-32.3667 33.7078-31.715 34.1167-30.9483L36.915-25.62C38.1161-25.2111 38.9339-24.7383 39.3683-24.2017L38.985-21.25L32.5067-21.25L28.0983-30.6417C27.6895-31.5872 27.2167-32.06 26.68-32.06L24.1883-32.06L24.1883-25.9267C26.0539-25.5178 27.2167-25.0194 27.6767-24.4317L27.2933-21.25L16.9433-21.25L16.56-24.4317C16.8922-24.8661 17.595-25.2878 18.6683-25.6967L18.6683-43.215C17.6206-43.5983 16.9178-44.0328 16.56-44.5183L16.9433-47.7L26.7183-47.7C30.2961-47.6489 32.9539-47.0739 34.6917-45.975C36.4295-44.8761 37.2983-42.87 37.2983-39.9567ZM26.45-43.5217L24.1883-43.5217L24.1883-36.2383L26.3733-36.2383C28.1111-36.2383 29.4017-36.4939 30.245-37.005C31.1139-37.5417 31.5483-38.4872 31.5483-39.8417C31.5483-41.1961 31.1139-42.1417 30.245-42.6783C29.3761-43.2406 28.1111-43.5217 26.45-43.5217ZM44.2723-23.9333C42.2534-23.9333 41.244-24.8789 41.244-26.77C41.244-28.6867 42.2534-29.645 44.2723-29.645C46.3168-29.645 47.339-28.6867 47.339-26.77C47.339-24.8789 46.3168-23.9333 44.2723-23.9333ZM44.2723-32.5967C42.2534-32.5967 41.244-33.5422 41.244-35.4333C41.244-37.35 42.2534-38.3083 44.2723-38.3083C46.3168-38.3083 47.339-37.35 47.339-35.4333C47.339-33.5422 46.3168-32.5967 44.2723-32.5967ZM71.1395-39.9567C71.1395-38.2189 70.59-36.7622 69.4912-35.5867C68.4178-34.4111 67.0634-33.5167 65.4278-32.9033C66.7056-32.3667 67.5489-31.715 67.9578-30.9483L70.7562-25.62C71.9573-25.2111 72.775-24.7383 73.2095-24.2017L72.8262-21.25L66.3478-21.25L61.9395-30.6417C61.5306-31.5872 61.0578-32.06 60.5212-32.06L58.0295-32.06L58.0295-25.9267C59.895-25.5178 61.0578-25.0194 61.5178-24.4317L61.1345-21.25L50.7845-21.25L50.4012-24.4317C50.7334-24.8661 51.4362-25.2878 52.5095-25.6967L52.5095-43.215C51.4617-43.5983 50.7589-44.0328 50.4012-44.5183L50.7845-47.7L60.5595-47.7C64.1373-47.6489 66.795-47.0739 68.5328-45.975C70.2706-44.8761 71.1395-42.87 71.1395-39.9567ZM60.2912-43.5217L58.0295-43.5217L58.0295-36.2383L60.2145-36.2383C61.9523-36.2383 63.2428-36.4939 64.0862-37.005C64.955-37.5417 65.3895-38.4872 65.3895-39.8417C65.3895-41.1961 64.955-42.1417 64.0862-42.6783C63.2173-43.2406 61.9523-43.5217 60.2912-43.5217Z"/>
  </g>
  <g id="Ultralight-S" transform="matrix(1 0 0 1 515.649 696)">
   <path class="monochrome-0 multicolor-0:tintColor hierarchical-0:primary SFSymbolsPreviewWireframe" d="M35.2983-39.9567C35.2983-38.2189 34.7489-36.7622 33.65-35.5867C32.5767-34.4111 31.2222-33.5167 29.5867-32.9033C30.8645-32.3667 31.7078-31.715 32.1167-30.9483L34.915-25.62C36.1161-25.2111 36.9339-24.7383 37.3683-24.2017L36.985-21.25L30.5067-21.25L26.0983-30.6417C25.6895-31.5872 25.2167-32.06 24.68-32.06L22.1883-32.06L22.1883-25.9267C24.0539-25.5178 25.2167-25.0194 25.6767-24.4317L25.2933-21.25L14.9433-21.25L14.56-24.4317C14.8922-24.8661 15.595-25.2878 16.6683-25.6967L16.6683-43.215C15.6206-43.5983 14.9178-44.0328 14.56-44.5183L14.9433-47.7L24.7183-47.7C28.2961-47.6489 30.9539-47.0739 32.6917-45.975C34.4295-44.8761 35.2983-42.87 35.2983-39.9567ZM24.45-43.5217L22.1883-43.5217L22.1883-36.2383L24.3733-36.2383C26.1111-36.2383 27.4017-36.4939 28.245-37.005C29.1139-37.5417 29.5483-38.4872 29.5483-39.8417C29.5483-41.1961 29.1139-42.1417 28.245-42.6783C27.3761-43.2406 26.1111-43.5217 24.45-43.5217ZM42.2723-23.9333C40.2534-23.9333 39.244-24.8789 39.244-26.77C39.244-28.6867 40.2534-29.645 42.2723-29.645C44.3168-29.645 45.339-28.6867 45.339-26.77C45.339-24.8789 44.3168-23.9333 42.2723-23.9333ZM42.2723-32.5967C40.2534-32.5967 39.244-33.5422 39.244-35.4333C39.244-37.35 40.2534-38.3083 42.2723-38.3083C44.3168-38.3083 45.339-37.35 45.339-35.4333C45.339-33.5422 44.3168-32.5967 42.2723-32.5967ZM69.1395-39.9567C69.1395-38.2189 68.59-36.7622 67.4912-35.5867C66.4178-34.4111 65.0634-33.5167 63.4278-32.9033C64.7056-32.3667 65.5489-31.715 65.9578-30.9483L68.7562-25.62C69.9573-25.2111 70.775-24.7383 71.2095-24.2017L70.8262-21.25L64.3478-21.25L59.9395-30.6417C59.5306-31.5872 59.0578-32.06 58.5212-32.06L56.0295-32.06L56.0295-25.9267C57.895-25.5178 59.0578-25.0194 59.5178-24.4317L59.1345-21.25L48.7845-21.25L48.4012-24.4317C48.7334-24.8661 49.4362-25.2878 50.5095-25.6967L50.5095-43.215C49.4617-43.5983 48.7589-44.0328 48.4012-44.5183L48.7845-47.7L58.5595-47.7C62.1373-47.6489 64.795-47.0739 66.5328-45.975C68.2706-44.8761 69.1395-42.87 69.1395-39.9567ZM58.2912-43.5217L56.0295-43.5217L56.0295-36.2383L58.2145-36.2383C59.9523-36.2383 61.2428-36.4939 62.0862-37.005C62.955-37.5417 63.3895-38.4872 63.3895-39.8417C63.3895-41.1961 62.955-42.1417 62.0862-42.6783C61.2173-43.2406 59.9523-43.5217 58.2912-43.5217Z"/>
  </g>
 </g>
</svg>
